<?xml version="1.0" standalone="no"?>
<!DOCTYPE svg PUBLIC "-//W3C//DTD SVG 20010904//EN"
 "http://www.w3.org/TR/2001/REC-SVG-20010904/DTD/svg10.dtd">
<svg version="1.0" xmlns="http://www.w3.org/2000/svg"
 width="512.000000pt" height="512.000000pt" viewBox="0 0 512.000000 512.000000"
 preserveAspectRatio="xMidYMid meet">
<metadata>
Created by potrace 1.11, written by Peter Selinger 2001-2013
</metadata>
<g transform="translate(0.000000,512.000000) scale(0.100000,-0.100000)"
fill="#000000" stroke="none">
<path d="M2379 4005 c-451 -63 -829 -304 -1066 -680 -80 -127 -159 -333 -189
-495 -25 -138 -25 -402 1 -535 79 -403 299 -737 627 -952 53 -35 135 -81 181
-103 86 -39 253 -95 317 -105 19 -3 60 -10 90 -17 114 -23 395 -13 530 18 14
3 32 7 41 9 65 13 251 85 337 130 133 71 236 147 342 254 105 106 119 123 185
225 217 334 289 725 206 1120 -49 230 -185 503 -321 644 -49 50 -93 57 -128
19 -38 -40 -29 -75 43 -167 265 -336 353 -749 244 -1148 -151 -548 -662 -953
-1220 -966 -167 -4 -286 13 -444 66 -469 156 -815 563 -889 1048 -18 116 -13
312 12 435 92 457 424 841 856 990 44 15 88 29 99 31 10 2 26 5 35 8 17 5 41
10 122 21 140 21 359 4 512 -40 48 -14 135 -46 194 -71 65 -28 113 -42 125
-39 52 17 74 79 44 122 -27 38 -279 141 -387 157 -21 3 -59 11 -85 17 -69 15
-314 18 -414 4z"/>
<path d="M3355 3698 c-37 -32 -37 -83 -1 -115 46 -39 108 -23 126 32 26 79
-62 137 -125 83z"/>
<path d="M1882 3153 c-18 -7 -41 -56 -40 -84 2 -17 92 -114 317 -341 l316
-317 1 -353 c0 -194 4 -363 7 -374 10 -28 57 -48 95 -39 57 12 59 28 58 453
l-1 382 -340 340 c-299 298 -344 340 -370 339 -17 0 -36 -3 -43 -6z"/>
<path d="M3037 3032 c-73 -71 -181 -178 -240 -236 -124 -122 -140 -145 -125
-187 12 -35 58 -62 90 -54 13 3 133 114 268 246 234 230 245 242 245 278 0 46
-22 70 -70 78 -35 6 -39 2 -168 -125z"/>
</g>
</svg>
